<svg width="14" height="14" viewBox="0 0 14 14" fill="none" xmlns="http://www.w3.org/2000/svg">
<path d="M6.99333 0.333252C3.31333 0.333252 0.32666 3.31992 0.32666 6.99992C0.32666 10.6799 3.31333 13.6666 6.99333 13.6666C10.6733 13.6666 13.66 10.6799 13.66 6.99992C13.66 3.31992 10.6733 0.333252 6.99333 0.333252ZM9.39999 4.55992C10.1133 4.55992 10.6867 5.13325 10.6867 5.84659C10.6867 6.55992 10.1133 7.13325 9.39999 7.13325C8.68666 7.13325 8.11333 6.55992 8.11333 5.84659C8.10666 5.13325 8.68666 4.55992 9.39999 4.55992ZM5.39999 3.50659C6.26666 3.50659 6.97333 4.21325 6.97333 5.07992C6.97333 5.94659 6.26666 6.65325 5.39999 6.65325C4.53333 6.65325 3.82666 5.94659 3.82666 5.07992C3.82666 4.20659 4.52666 3.50659 5.39999 3.50659ZM5.39999 9.59325V12.0933C3.79999 11.5933 2.53333 10.3599 1.97333 8.78659C2.67333 8.03992 4.41999 7.65992 5.39999 7.65992C5.75333 7.65992 6.19999 7.71325 6.66666 7.80659C5.57333 8.38659 5.39999 9.15325 5.39999 9.59325ZM6.99333 12.3333C6.81333 12.3333 6.63999 12.3266 6.46666 12.3066V9.59325C6.46666 8.64659 8.42666 8.17325 9.39999 8.17325C10.1133 8.17325 11.3467 8.43325 11.96 8.93992C11.18 10.9199 9.25333 12.3333 6.99333 12.3333Z" fill="#3C3C46"/>
</svg>
